<svg class="animated" id="freepik_stories-photo" xmlns="http://www.w3.org/2000/svg" viewBox="0 0 500 500" version="1.1" xmlns:xlink="http://www.w3.org/1999/xlink" xmlns:svgjs="http://svgjs.com/svgjs"><style>svg#freepik_stories-photo:not(.animated) .animable {opacity: 0;}svg#freepik_stories-photo.animated #freepik--Photos--inject-8 {animation: 1s 1 forwards cubic-bezier(.36,-0.01,.5,1.38) slideDown,6s Infinite  linear floating;animation-delay: 0s,1s;}svg#freepik_stories-photo.animated #freepik--Device--inject-8 {animation: 1s 1 forwards cubic-bezier(.36,-0.01,.5,1.38) slideUp,6s Infinite  linear floating;animation-delay: 0s,1s;}svg#freepik_stories-photo.animated #freepik--Camera--inject-8 {animation: 1s 1 forwards cubic-bezier(.36,-0.01,.5,1.38) slideLeft,6s Infinite  linear floating;animation-delay: 0s,1s;}svg#freepik_stories-photo.animated #freepik--Character--inject-8 {animation: 1s 1 forwards cubic-bezier(.36,-0.01,.5,1.38) slideUp,6s Infinite  linear floating;animation-delay: 0s,1s;}            @keyframes slideDown {                0% {                    opacity: 0;                    transform: translateY(-30px);                }                100% {                    opacity: 1;                    transform: translateY(0);                }            }                    @keyframes floating {                0% {                    opacity: 1;                    transform: translateY(0px);                }                50% {                    transform: translateY(-10px);                }                100% {                    opacity: 1;                    transform: translateY(0px);                }            }                    @keyframes slideUp {                0% {                    opacity: 0;                    transform: translateY(30px);                }                100% {                    opacity: 1;                    transform: inherit;                }            }                    @keyframes slideLeft {                0% {                    opacity: 0;                    transform: translateX(-30px);                }                100% {                    opacity: 1;                    transform: translateX(0);                }            }        </style><g id="freepik--Floor--inject-8" class="animable" style="transform-origin: 268.699px 321.36px;"><path d="M117,400.61c83.79,43.77,219.63,43.77,303.41,0s83.79-114.73,0-158.5-219.62-43.77-303.41,0S33.19,356.84,117,400.61Z" style="fill: rgb(245, 245, 245); transform-origin: 268.699px 321.36px;" id="elvz667wotzoc" class="animable"></path></g><g id="freepik--Shadow--inject-8" class="animable" style="transform-origin: 365.202px 390.13px;"><path d="M342.39,401c12.6,6,33,6,45.62,0s12.6-15.74,0-21.74-33-6-45.62,0S329.8,395,342.39,401Z" style="fill: rgb(224, 224, 224); transform-origin: 365.202px 390.13px;" id="elx1zf1bzpt4" class="animable"></path></g><g id="freepik--Plants--inject-8" class="animable animator-active" style="transform-origin: 228.178px 292.089px;"><path d="M78.6,257.19s.14-16.07-8.16-25.84-18.33-8-21.91-6.14-6,7,.18,10.76,19.23,11.18,21.4,17.83Z" style="fill: #0563BB; transform-origin: 61.7566px 240.472px;" id="el3hvz86wn8fs" class="animable"></path><path d="M52.29,227c5.35,1.58,20.69,10.15,22.44,26.29" style="fill: none; stroke: rgb(255, 255, 255); stroke-linecap: round; stroke-miterlimit: 10; transform-origin: 63.51px 240.145px;" id="elk72egyniiqm" class="animable"></path><path d="M71.66,250c-2.08-4.73-4.43-6.86-11.19-5.73s-5.76,1-14.07-1.16-14,1.3-14.65,4.49c-.66,3.47,6.11,5,11.17,7.25s8.52,5.13,7.31,9.68c-1,3.9-.38,7.2,5.63,8.61,5.34,1.26,11-1.82,13.24,3.29,1.26,2.91,6.25,6.09,10.84,3.37,7.94-8,5.71-17.72.61-24.13C78.3,252.83,72.91,252.84,71.66,250Z" style="fill: #0563BB; transform-origin: 58.4294px 261.636px;" id="ellwkwat565dh" class="animable"></path><g id="eluzrbw5qhj5"><path d="M71.66,250c-2.08-4.73-4.43-6.86-11.19-5.73s-5.76,1-14.07-1.16-14,1.3-14.65,4.49c-.66,3.47,6.11,5,11.17,7.25s8.52,5.13,7.31,9.68c-1,3.9-.38,7.2,5.63,8.61,5.34,1.26,11-1.82,13.24,3.29,1.26,2.91,6.25,6.09,10.84,3.37,7.94-8,5.71-17.72.61-24.13C78.3,252.83,72.91,252.84,71.66,250Z" style="opacity: 0.2; isolation: isolate; transform-origin: 58.4294px 261.636px;" class="animable" id="elizu92wc0yf"></path></g><path d="M37.86,245.83c8.67.62,34.05,11,40.52,25.17" style="fill: none; stroke: rgb(255, 255, 255); stroke-linecap: round; stroke-miterlimit: 10; transform-origin: 58.12px 258.415px;" id="el6l28swvn5s9" class="animable"></path><path d="M56.28,265.1a23.87,23.87,0,0,1,12.55-5.34" style="fill: none; stroke: rgb(255, 255, 255); stroke-linecap: round; stroke-miterlimit: 10; transform-origin: 62.555px 262.43px;" id="elpjlz9y6mu3i" class="animable"></path><path d="M158,409.25c-2.9,1.67-9.13,1.94-10.57-3.1s-1.12-7.56-5-8.43-11.15,2.88-14-2.75,3-8.51-.59-11.59-10.16-6.46-6.89-10.46,7.53-2.89,11.15-1.51c3.79,1.43,9.56.29,14.53.63s6.09,4.24,6.21,7.27,1.87,6.51,6.19,5.73Z" style="fill: #0563BB; transform-origin: 139.547px 390.239px;" id="eldmxj7dp5ik6" class="animable"></path><path d="M125.07,373.75c11.69,1.39,28.42,15.11,33.42,24.32" style="fill: none; stroke: rgb(255, 255, 255); stroke-linecap: round; stroke-miterlimit: 10; transform-origin: 141.78px 385.91px;" id="el9d7zg10zboe" class="animable"></path><path d="M147.7,375.86s.07,7.13-1.06,9" style="fill: none; stroke: rgb(255, 255, 255); stroke-linecap: round; stroke-miterlimit: 10; transform-origin: 147.17px 380.36px;" id="elh0nfstxj8si" class="animable"></path><path d="M132.93,390.62s8.39-1.38,16.31-3.53" style="fill: none; stroke: rgb(255, 255, 255); stroke-linecap: round; stroke-miterlimit: 10; transform-origin: 141.085px 388.855px;" id="el1ri22cdui64" class="animable"></path><path d="M392.78,219.91c5.62,0,8-1.59,9.41-5.24s.87-7.37,5.45-8.81,7.31-.54,9.59-5.09-3.58-10.09-.76-13.25,9.35-6.29,8-10.2c-.87-2.64-3.64-3.61-6.21-3.46a9.1,9.1,0,0,0-4.49,1.93A8.67,8.67,0,0,1,409,177.3a28.8,28.8,0,0,1-5-.16,7,7,0,0,0-3.43.38c-1.9.87-2.76,3.2-2.54,5.27a13.42,13.42,0,0,1,0,4.73c-.53,2.35-3.58,3-5.26,4.75-3.89,4-1.08,11.07-.7,16C392.35,211.63,392.52,216.58,392.78,219.91Z" style="fill: #0563BB; transform-origin: 407.693px 196.878px;" id="el11r02ix7nop" class="animable"></path><path d="M420.42,177.32c-4.66,1.25-22.93,16.58-26.64,32.53" style="fill: none; stroke: rgb(255, 255, 255); stroke-linecap: round; stroke-miterlimit: 10; transform-origin: 407.1px 193.585px;" id="elfeycgzuffdi" class="animable"></path><path d="M402.93,180.64s2.75,4.54,2.65,8.4" style="fill: none; stroke: rgb(255, 255, 255); stroke-linecap: round; stroke-miterlimit: 10; transform-origin: 404.256px 184.84px;" id="elazi4qx5uako" class="animable"></path><path d="M413.08,198.08s-8.45-2.8-14.37.24" style="fill: none; stroke: rgb(255, 255, 255); stroke-linecap: round; stroke-miterlimit: 10; transform-origin: 405.895px 197.612px;" id="elp3la4a2neqj" class="animable"></path></g><g id="freepik--Photos--inject-8" class="animable" style="transform-origin: 159.015px 190.371px;"><polygon points="184.15 214.85 177.75 214.22 177.75 73.27 184.15 73.89 184.15 214.85" style="fill: rgb(224, 224, 224); transform-origin: 180.95px 144.06px;" id="elac3huhpqr8i" class="animable"></polygon><path d="M160.77,123.56l-24.34,58.21-16-12.93a2.78,2.78,0,0,0-3.9.41,3.21,3.21,0,0,0-.36.59L80.09,249v10.66c0,1.28.9,1.8,2,1.16l14.13-8.16,79.53-45.91a4.46,4.46,0,0,0,2-3.47v-62.7l-12.14-17.52a2.77,2.77,0,0,0-3.85-.71A2.69,2.69,0,0,0,160.77,123.56Z" style="fill: rgb(224, 224, 224); transform-origin: 128.92px 191.478px;" id="el6i7z4vb2vre" class="animable"></path><path d="M87.6,134.13v27.35c3.07,1.12,7,.59,11.27-1.88,9.85-5.69,17.84-19.52,17.84-30.9,0-5.26-1.7-9.06-4.51-11.08l-22.6,13A4.42,4.42,0,0,0,87.6,134.13Z" style="fill: rgb(224, 224, 224); transform-origin: 102.155px 139.83px;" id="eln2hm3p44scm" class="animable"></path><polygon points="172.09 126.41 164.7 122.21 164.7 130.68 172.09 126.41" style="fill: rgb(224, 224, 224); transform-origin: 168.395px 126.445px;" id="elx0plujmiw4" class="animable"></polygon><polygon points="127.53 172.82 120.03 168.57 119.91 176.99 127.53 172.82" style="fill: rgb(224, 224, 224); transform-origin: 123.72px 172.78px;" id="elej41harc9bl" class="animable"></polygon><path d="M189,70.92a1,1,0,0,0,0-.25,4.45,4.45,0,0,0-1.93-2.89l-3.52-2a4.41,4.41,0,0,0-4,0L78.37,124.15a4.2,4.2,0,0,0-1.43,1.5,4.11,4.11,0,0,0-.58,2V279.14a4.46,4.46,0,0,0,2,3.47l3.5,2a4.45,4.45,0,0,0,3.54.21l.14-.05.33-.16L130.37,259l56.69-32.72a4.44,4.44,0,0,0,2-3.47V71.24A1,1,0,0,1,189,70.92ZM184.15,208.2a4.46,4.46,0,0,1-2,3.47l-51.73,29.88L89.6,265.11c-1.1.64-2,.12-2-1.16V134.13a4.46,4.46,0,0,1,2-3.47l92.54-53.44c1.11-.65,2-.13,2,1.15Z" style="fill: rgb(245, 245, 245); transform-origin: 132.71px 175.196px;" id="elnj3m2b24n6" class="animable"></path><path d="M130.42,241.55c0,6.13-.06,12-.09,17.4l-44.48,25.7-.33.16-.14.05a4.45,4.45,0,0,1-3.54-.21l-3.5-2a4.46,4.46,0,0,1-2-3.47V127.65a4.11,4.11,0,0,1,.58-2L84.43,130l3.77,2.17a4,4,0,0,0-.59,2V264c0,1.28.9,1.8,2,1.16Z" style="fill: rgb(224, 224, 224); transform-origin: 103.38px 205.39px;" id="elhidf6ir47tb" class="animable"></path><path d="M168.28,127.82,143.94,186l-16-12.93a2.77,2.77,0,0,0-3.91.42,2.83,2.83,0,0,0-.36.58L87.59,253.25V274c0,1.27.9,1.79,2,1.15L103.72,267l78.43-45.3a4.46,4.46,0,0,0,2-3.47V145.45l-11-18.14a2.78,2.78,0,0,0-3.86-.74A2.81,2.81,0,0,0,168.28,127.82Z" style="fill: rgb(245, 245, 245); transform-origin: 135.87px 200.758px;" id="elgvq9nw7hyxv" class="animable"></path><path d="M189,70.92a1,1,0,0,0,0-.25c-.24-.84-1-1.12-1.93-.58L85.85,128.5a4.33,4.33,0,0,0-2,3.47v151.5c0,1.09.66,1.63,1.53,1.37l.14,0,.33-.16L130.37,259l56.69-32.72a4.44,4.44,0,0,0,2-3.47V71.24A1,1,0,0,1,189,70.92ZM184.15,218.2a4.46,4.46,0,0,1-2,3.47l-51.73,29.88L89.6,275.11c-1.1.64-2,.12-2-1.16V134.13a4.46,4.46,0,0,1,2-3.47l92.54-53.44c1.11-.65,2-.13,2,1.15Z" style="fill: rgb(240, 240, 240); transform-origin: 136.455px 177.359px;" id="eldswl7y2jl0d" class="animable"></path><polygon points="210.46 230.03 204.06 229.4 204.06 88.45 210.46 89.07 210.46 230.03" style="fill: rgb(224, 224, 224); transform-origin: 207.26px 159.24px;" id="el1q7950e2swb" class="animable"></polygon><path d="M187.08,138.74,162.74,197l-16-12.93a2.78,2.78,0,0,0-3.9.42,3.13,3.13,0,0,0-.36.58L106.4,264.17v10.66c0,1.28.9,1.8,2,1.16l14.13-8.16,79.53-45.91a4.44,4.44,0,0,0,2-3.47v-62.7l-12.14-17.52a2.77,2.77,0,0,0-4.84.51Z" style="fill: rgb(224, 224, 224); transform-origin: 155.23px 206.648px;" id="elbv0v1dwxe8h" class="animable"></path><path d="M113.91,149.31v27.35c3.07,1.12,7,.59,11.27-1.88C135,169.09,143,155.26,143,143.88c0-5.26-1.7-9.06-4.51-11.08l-22.6,13A4.45,4.45,0,0,0,113.91,149.31Z" style="fill: rgb(224, 224, 224); transform-origin: 128.455px 155.01px;" id="el02s8c7buv172" class="animable"></path><polygon points="198.4 141.59 191.01 137.39 191.01 145.86 198.4 141.59" style="fill: rgb(224, 224, 224); transform-origin: 194.705px 141.625px;" id="elz2pi2lvblt" class="animable"></polygon><polygon points="153.84 188 146.34 183.75 146.22 192.17 153.84 188" style="fill: rgb(224, 224, 224); transform-origin: 150.03px 187.96px;" id="elddwhxvu5uis" class="animable"></polygon><path d="M215.3,86.1a1,1,0,0,0,0-.25A4.49,4.49,0,0,0,213.37,83l-3.52-2a4.41,4.41,0,0,0-4,0L104.68,139.33a4.28,4.28,0,0,0-1.43,1.5,4.18,4.18,0,0,0-.58,2V294.32a4.44,4.44,0,0,0,2,3.47l3.5,2a4.41,4.41,0,0,0,3.54.21l.14-.05.33-.16,44.5-25.66,56.69-32.72a4.44,4.44,0,0,0,2-3.47V86.42A1,1,0,0,1,215.3,86.1Zm-4.84,137.28a4.44,4.44,0,0,1-2,3.47l-51.73,29.88-40.82,23.56c-1.1.64-2,.12-2-1.16V149.31a4.47,4.47,0,0,1,2-3.47L208.45,92.4c1.11-.65,2-.13,2,1.15Z" style="fill: rgb(245, 245, 245); transform-origin: 159.02px 190.397px;" id="elwv327m11kf" class="animable"></path><path d="M156.73,256.73c0,6.13-.06,12-.09,17.4l-44.48,25.7-.33.16-.14.05a4.41,4.41,0,0,1-3.54-.21l-3.5-2a4.44,4.44,0,0,1-2-3.47V142.83a4.18,4.18,0,0,1,.58-2l7.51,4.34,3.77,2.17a4.08,4.08,0,0,0-.59,2V279.13c0,1.28.9,1.8,2,1.16Z" style="fill: rgb(224, 224, 224); transform-origin: 129.69px 220.572px;" id="el6gxq0c5xn5n" class="animable"></path><path d="M194.59,143l-24.34,58.21-16-12.93a2.79,2.79,0,0,0-3.91.42,3.5,3.5,0,0,0-.36.58L113.9,268.43v20.7c0,1.27.9,1.79,2,1.15L130,282.13l78.43-45.3a4.44,4.44,0,0,0,2-3.47V160.63l-11-18.14a2.78,2.78,0,0,0-3.86-.73A2.84,2.84,0,0,0,194.59,143Z" style="fill: rgb(245, 245, 245); transform-origin: 162.165px 215.916px;" id="elmintg4m3fda" class="animable"></path><path d="M215.3,86.1a1,1,0,0,0,0-.25c-.24-.84-1-1.12-1.93-.58L112.16,143.68a4.36,4.36,0,0,0-2,3.47v151.5c0,1.09.66,1.63,1.53,1.37l.14,0,.33-.16,44.52-25.68,56.69-32.72a4.44,4.44,0,0,0,2-3.47V86.42A1,1,0,0,1,215.3,86.1Zm-4.84,147.28a4.44,4.44,0,0,1-2,3.47l-51.73,29.88-40.82,23.56c-1.1.64-2,.12-2-1.16V149.31a4.47,4.47,0,0,1,2-3.47L208.45,92.4c1.11-.65,2-.13,2,1.15Z" style="fill: rgb(240, 240, 240); transform-origin: 162.765px 192.539px;" id="eltrgj1zpgg5" class="animable"></path><polygon points="236.78 245.2 230.38 244.57 230.38 103.62 236.78 104.24 236.78 245.2" style="fill: rgb(38, 50, 56); transform-origin: 233.58px 174.41px;" id="elipgsf13a7wf" class="animable"></polygon><path d="M213.4,153.91l-24.34,58.21-16-12.93a2.78,2.78,0,0,0-3.9.41,3.21,3.21,0,0,0-.36.59l-36.08,79.15V290c0,1.28.9,1.8,2,1.16L148.85,283l79.53-45.91a4.44,4.44,0,0,0,2-3.47v-62.7L218.24,153.4a2.77,2.77,0,0,0-4.84.51Z" style="fill: #0563BB; transform-origin: 181.55px 221.818px;" id="ely2rfx72oeu" class="animable"></path><path d="M140.23,164.48v27.35c3.07,1.12,7,.59,11.27-1.88,9.85-5.69,17.84-19.52,17.84-30.9,0-5.26-1.7-9.06-4.51-11.08l-22.6,13A4.43,4.43,0,0,0,140.23,164.48Z" style="fill: #0563BB; transform-origin: 154.785px 170.18px;" id="elj2v4sqa9gfk" class="animable"></path><g id="elnwufp3kedn"><path d="M213.4,153.91l-24.34,58.21-16-12.93a2.78,2.78,0,0,0-3.9.41,3.21,3.21,0,0,0-.36.59l-36.08,79.15V290c0,1.28.9,1.8,2,1.16L148.85,283l79.53-45.91a4.44,4.44,0,0,0,2-3.47v-62.7L218.24,153.4a2.77,2.77,0,0,0-4.84.51Z" style="fill: rgb(255, 255, 255); opacity: 0.5; isolation: isolate; transform-origin: 181.55px 221.818px;" class="animable" id="elzxlb37bwvpl"></path></g><polygon points="224.72 156.76 217.33 152.56 217.33 161.03 224.72 156.76" style="fill: #0563BB; transform-origin: 221.025px 156.795px;" id="elcz8g24lpzoc" class="animable"></polygon><polygon points="180.16 203.17 172.66 198.92 172.54 207.34 180.16 203.17" style="fill: #0563BB; transform-origin: 176.35px 203.13px;" id="elankgtk47pqe" class="animable"></polygon><g id="el8m1nmwsqf0y"><polygon points="224.72 156.76 217.33 152.56 217.33 161.03 224.72 156.76" style="fill: rgb(255, 255, 255); opacity: 0.5; isolation: isolate; transform-origin: 221.025px 156.795px;" class="animable" id="elevbcar0t4oi"></polygon></g><g id="eld1x04g7731i"><polygon points="180.16 203.17 172.66 198.92 172.54 207.34 180.16 203.17" style="fill: rgb(255, 255, 255); opacity: 0.5; isolation: isolate; transform-origin: 176.35px 203.13px;" class="animable" id="elnwt2wwur1wi"></polygon></g><path d="M241.62,101.27a1,1,0,0,0,0-.25,4.49,4.49,0,0,0-1.93-2.89l-3.52-2a4.41,4.41,0,0,0-4,0L131,154.5a4.2,4.2,0,0,0-1.43,1.5,4.15,4.15,0,0,0-.58,2V309.49a4.44,4.44,0,0,0,2,3.47l3.5,2a4.45,4.45,0,0,0,3.54.21l.14-.05.33-.16L183,289.3l56.69-32.72a4.44,4.44,0,0,0,2-3.47V101.59A1,1,0,0,1,241.62,101.27Zm-4.84,137.28a4.44,4.44,0,0,1-2,3.47L183.05,271.9l-40.82,23.56c-1.1.64-2,.12-2-1.16V164.48a4.46,4.46,0,0,1,2-3.47l92.54-53.44c1.11-.65,2-.13,2,1.15Z" style="fill: rgb(69, 90, 100); transform-origin: 185.34px 205.546px;" id="elbl5wmcl256j" class="animable"></path><path d="M183.05,271.9c0,6.13-.06,12-.09,17.4L138.48,315l-.33.16-.14,0a4.45,4.45,0,0,1-3.54-.21l-3.5-2a4.44,4.44,0,0,1-2-3.47V158a4.15,4.15,0,0,1,.58-2l7.51,4.34,3.77,2.17a4,4,0,0,0-.59,2V294.3c0,1.28.9,1.8,2,1.16Z" style="fill: rgb(38, 50, 56); transform-origin: 156.01px 235.715px;" id="elkd9lyl9jhr8" class="animable"></path><g id="el36tmlt25vgh"><path d="M140.23,164.48v27.35c3.07,1.12,7,.59,11.27-1.88,9.85-5.69,17.84-19.52,17.84-30.9,0-5.26-1.7-9.06-4.51-11.08l-22.6,13A4.43,4.43,0,0,0,140.23,164.48Z" style="fill: rgb(255, 255, 255); opacity: 0.7; isolation: isolate; transform-origin: 154.785px 170.18px;" class="animable" id="eld97r2z30lwv"></path></g><path d="M220.91,158.17l-24.34,58.21-16-12.93a2.78,2.78,0,0,0-3.91.42,3.13,3.13,0,0,0-.36.58L140.22,283.6v20.7c0,1.27.9,1.79,2,1.15l14.13-8.15L234.78,252a4.46,4.46,0,0,0,2-3.47V175.8l-11-18.14a2.78,2.78,0,0,0-4.87.51Z" style="fill: #0563BB; transform-origin: 188.5px 231.084px;" id="elq8e4w5kkj4b" class="animable"></path><path d="M241.62,101.27a1,1,0,0,0,0-.25c-.24-.84-1-1.12-1.93-.58L138.48,158.85a4.35,4.35,0,0,0-2,3.47v151.5c0,1.09.66,1.63,1.53,1.37l.14-.05.33-.16L183,289.3l56.69-32.72a4.44,4.44,0,0,0,2-3.47V101.59A1,1,0,0,1,241.62,101.27Zm-4.84,147.28a4.44,4.44,0,0,1-2,3.47L183.05,281.9l-40.82,23.56c-1.1.64-2,.12-2-1.16V164.48a4.46,4.46,0,0,1,2-3.47l92.54-53.44c1.11-.65,2-.13,2,1.15Z" style="fill: rgb(55, 71, 79); transform-origin: 189.085px 207.709px;" id="eli1zcbxevf4" class="animable"></path></g><g id="freepik--Device--inject-8" class="animable" style="transform-origin: 220.87px 339.857px;"><path d="M164,344.77V410c0,1.65,1,2.41,2.39,1.9a6.48,6.48,0,0,1-5.28-.23l-2.35-1.36a6.39,6.39,0,0,1-2.88-5V340.08a6.06,6.06,0,0,1,.84-2.85l8.13,4.69A5.85,5.85,0,0,0,164,344.77Z" style="fill: rgb(38, 50, 56); transform-origin: 161.135px 374.792px;" id="el0xtgvpbw5nml" class="animable"></path><path d="M274.8,268.05a6.38,6.38,0,0,1,5.77,0l2.36,1.36a6.47,6.47,0,0,1,2.84,4.46c-.23-1.44-1.42-1.95-2.84-1.13l-116.09,67a5.89,5.89,0,0,0-2,2.15l-8.13-4.69a6.07,6.07,0,0,1,2-2.15Z" style="fill: rgb(69, 90, 100); transform-origin: 221.24px 304.625px;" id="elt1fal0ed48g" class="animable"></path><path d="M164,344.77V410c0,1.84,1.29,2.59,2.89,1.67l116.09-67a6.39,6.39,0,0,0,2.88-5V274.41c0-1.84-1.29-2.58-2.88-1.66l-116.09,67A6.36,6.36,0,0,0,164,344.77Z" style="fill: rgb(55, 71, 79); transform-origin: 224.93px 342.209px;" id="elcd5wflvggrf" class="animable"></path><path d="M267.83,284.59c1-.56,1.73-.11,1.73,1v61.66a3.82,3.82,0,0,1-1.73,3l-85.9,49.6c-1,.55-1.73.1-1.73-1V337.18a3.82,3.82,0,0,1,1.73-3Z" style="fill: rgb(245, 245, 245); transform-origin: 224.88px 342.217px;" id="elq4z1o8it49" class="animable"></path><path d="M168.35,374.85a2.28,2.28,0,0,1,1-1.76c.56-.32,1-.06,1,.59a2.28,2.28,0,0,1-1,1.76C168.81,375.76,168.35,375.5,168.35,374.85Z" style="fill: rgb(38, 50, 56); transform-origin: 169.35px 374.265px;" id="ele6dty9abmce" class="animable"></path><path d="M273.69,314a8.86,8.86,0,0,1,4-7c2.21-1.28,4-.24,4,2.32a8.87,8.87,0,0,1-4,6.94C275.48,317.63,273.69,316.59,273.69,314Z" style="fill: rgb(38, 50, 56); transform-origin: 277.69px 311.659px;" id="ell1dr5620nj9" class="animable"></path><path d="M172.49,361.39a4.49,4.49,0,0,1,2-3.52c1.12-.65,2-.12,2,1.17a4.49,4.49,0,0,1-2,3.52C173.4,363.21,172.49,362.68,172.49,361.39Z" style="fill: rgb(38, 50, 56); transform-origin: 174.49px 360.215px;" id="elf8l8eu0mhjl" class="animable"></path><path d="M174.6,365.91c.74-.44,1.35,0,1.35.88v15.43a3.14,3.14,0,0,1-1.35,2.45c-.75.43-1.36,0-1.36-.89V368.36A3.06,3.06,0,0,1,174.6,365.91Z" style="fill: rgb(38, 50, 56); transform-origin: 174.595px 375.288px;" id="elve675c0mtoc" class="animable"></path><path d="M180.2,337.18v13.36c1.86,1.3,4.54,1.25,7.52-.48,5.61-3.23,10.16-11.11,10.16-17.59,0-2.85-.89-5-2.35-6.14l-13.6,7.85A3.81,3.81,0,0,0,180.2,337.18Z" style="fill: #0563BB; transform-origin: 189.04px 338.887px;" id="elwsgx0g791i" class="animable"></path><g id="elzobivwmrl9p"><path d="M180.2,337.18v13.36c1.86,1.3,4.54,1.25,7.52-.48,5.61-3.23,10.16-11.11,10.16-17.59,0-2.85-.89-5-2.35-6.14l-13.6,7.85A3.81,3.81,0,0,0,180.2,337.18Z" style="fill: rgb(255, 255, 255); opacity: 0.7; isolation: isolate; transform-origin: 189.04px 338.887px;" class="animable" id="elz4mi5d48xuq"></path></g><path d="M269.56,325.22l-14.65-17.79a1.44,1.44,0,0,0-2-.51,1.46,1.46,0,0,0-.66.86L233,350.06l-18.15-10.47a2.77,2.77,0,0,0-3.59.8L180.2,385.21v13.63c0,1.11.77,1.56,1.73,1l85.9-49.6a3.82,3.82,0,0,0,1.73-3v-22Z" style="fill: #0563BB; transform-origin: 224.88px 353.395px;" id="elnldhw8nb1qh" class="animable"></path><polyline points="185.88 347.72 185.88 338.34 194 333.65" style="fill: none; stroke: rgb(255, 255, 255); stroke-linecap: round; stroke-linejoin: round; stroke-width: 1.5px; transform-origin: 189.94px 340.685px;" id="elvcowy0gwoaj" class="animable"></polyline><polyline points="185.88 382.4 185.88 391.78 194 387.09" style="fill: none; stroke: rgb(255, 255, 255); stroke-linecap: round; stroke-linejoin: round; stroke-width: 1.5px; transform-origin: 189.94px 387.09px;" id="elgzf1q88cjq" class="animable"></polyline><polyline points="255.96 298.1 264.08 293.41 264.08 302.79" style="fill: none; stroke: rgb(255, 255, 255); stroke-linecap: round; stroke-linejoin: round; stroke-width: 1.5px; transform-origin: 260.02px 298.1px;" id="elfyfjfivvvgu" class="animable"></polyline><polyline points="264.08 337.37 264.08 346.75 255.96 351.44" style="fill: none; stroke: rgb(255, 255, 255); stroke-linecap: round; stroke-linejoin: round; stroke-width: 1.5px; transform-origin: 260.02px 344.405px;" id="elxhuj041hdu" class="animable"></polyline></g><g id="freepik--Camera--inject-8" class="animable" style="transform-origin: 326.545px 211.965px;"><path d="M306.34,184.42c0,12.88-9,28.53-20.18,35-4.64,2.68-8.9,3.34-12.3,2.27-2.64-2.41-4.21-6.45-4.21-11.81,0-12.86,9-28.52,20.19-35,4.63-2.67,8.9-3.33,12.31-2.26C304.78,175.05,306.34,179.07,306.34,184.42Z" style="fill: #0563BB; transform-origin: 287.995px 197.155px;" id="elylgs0jvp84q" class="animable"></path><path d="M310,186.55c0,12.87-9,28.51-20.18,34.95-5.5,3.17-10.48,3.52-14.12,1.51l-.3-.17a9.46,9.46,0,0,1-1.56-1.19c-2.64-2.41-4.21-6.45-4.21-11.81,0-12.86,9-28.52,20.19-35,4.63-2.67,8.9-3.33,12.31-2.26a8.72,8.72,0,0,1,1.64.68l.09.05.57.33C307.9,175.88,310,180.31,310,186.55Z" style="fill: #0563BB; transform-origin: 289.815px 198.176px;" id="elpc9oto26gh" class="animable"></path><path d="M300.7,171.53h0l-.61-.35c-3.61-1.9-8.52-1.52-13.92,1.6C275,179.21,266,194.86,266,207.73a21.19,21.19,0,0,0,.88,6.33,12.35,12.35,0,0,0,3.63,5.76,9,9,0,0,0,1.24.89h.07l.09.06.34.19,3.16,1.83a9.46,9.46,0,0,1-1.56-1.19c-2.64-2.41-4.21-6.45-4.21-11.81,0-12.86,9-28.52,20.19-35,4.63-2.67,8.9-3.33,12.31-2.26a8.72,8.72,0,0,1,1.64.68Z" style="fill: rgb(69, 90, 100); transform-origin: 284.889px 196.407px;" id="elojkz554erx" class="animable"></path><path d="M270.49,219.82a9,9,0,0,0,1.24.89l-7.15-4.13h-.08c-3.59-2.13-5.82-6.63-5.82-13,0-12.86,9-28.52,20.18-35a18.29,18.29,0,0,1,9-2.75,10.47,10.47,0,0,1,5.27,1.34l7,4c-3.61-1.9-8.52-1.52-13.92,1.6C275,179.21,266,194.86,266,207.73a21.19,21.19,0,0,0,.88,6.33A12.06,12.06,0,0,0,270.49,219.82Z" style="fill: rgb(38, 50, 56); transform-origin: 279.405px 193.27px;" id="el78uuc0rgg7a" class="animable"></path><path d="M332,199.26c0,12.87-9,28.51-20.18,35a18.3,18.3,0,0,1-9,2.76,10.52,10.52,0,0,1-5.23-1.33h0L275.72,223l-.3-.17a9.46,9.46,0,0,1-1.56-1.19c-2.64-2.41-4.21-6.45-4.21-11.81,0-12.86,9-28.52,20.19-35,4.63-2.67,8.9-3.33,12.31-2.26a8.72,8.72,0,0,1,1.64.68l.09.05.57.33,21.65,12.49h0C329.76,188.28,332,192.81,332,199.26Z" style="fill: rgb(38, 50, 56); transform-origin: 300.825px 204.551px;" id="elr5ul0t3yv6f" class="animable"></path><path d="M320.15,267.42c-4.32,1.82-10.4,1.59-14.29-.65l-13.71-7.91a17.3,17.3,0,0,1-7.82-13.55v-37a12.83,12.83,0,0,1,.35-2.89c.07-.33.16-.65.26-1v-.09c.09-.3.19-.59.3-.89s.3-.77.47-1.15l.37-.78.42-.76.09-.18,29.36,17a15.94,15.94,0,0,0-2.3,7.71v37C313.68,266.71,316.48,268.8,320.15,267.42Z" style="fill: rgb(38, 50, 56); transform-origin: 302.24px 234.603px;" id="elnxxpsbfa9c" class="animable"></path><path d="M394.41,178.63v37a17.25,17.25,0,0,1-7.82,13.55l-65.08,37.58-.17.09a3,3,0,0,1-.4.21l-.44.21-.35.14c-3.67,1.38-6.47-.71-6.47-5.16v-37a17.35,17.35,0,0,1,7.83-13.55A29.12,29.12,0,0,0,335.35,191a11.14,11.14,0,0,1,1.47-3.85,8.6,8.6,0,0,1,2.79-2.9l14.19-8.2a2.9,2.9,0,0,1,2.9-.23l.28.16h0a5.25,5.25,0,0,1,1.73,2.17,9.79,9.79,0,0,0,13.13,4.4l.53-.29,14.21-8.19c4.12-2.38,7.49-.66,7.8,3.83C394.4,178.18,394.41,178.41,394.41,178.63Z" style="fill: rgb(55, 71, 79); transform-origin: 354.045px 220.415px;" id="ely7vaks1iorh" class="animable"></path><path d="M321,178.07h0l-13.56-7.83a10.94,10.94,0,0,0-1.47,3.85,29.12,29.12,0,0,1-13.84,20.65,16,16,0,0,0-5.53,5.83l29.36,17a15.81,15.81,0,0,1,5.53-5.84A29.13,29.13,0,0,0,335.35,191a11.14,11.14,0,0,1,1.47-3.85Z" style="fill: rgb(55, 71, 79); transform-origin: 311.71px 193.905px;" id="ele8ggpxqar6q" class="animable"></path><path d="M386.59,165.08l-13.71-7.91a17.24,17.24,0,0,0-15.64,0L343,165.35a9.64,9.64,0,0,1-2.69,1.07l.43.24h0l15.92,9.2.28.16h0a5.25,5.25,0,0,1,1.73,2.17,9.79,9.79,0,0,0,13.13,4.4l.53-.29,14.21-8.19c4.12-2.38,7.49-.66,7.8,3.83A17.24,17.24,0,0,0,386.59,165.08Z" style="fill: rgb(55, 71, 79); transform-origin: 367.325px 169.456px;" id="ely0rtkdmdhf" class="animable"></path><path d="M340.78,166.66h0l-.43-.24-12.76-7.37-.25-.14a2.88,2.88,0,0,0-2.89.23l-14.2,8.19a8.54,8.54,0,0,0-2.79,2.91L321,178.07h0l15.79,9.12a8.6,8.6,0,0,1,2.79-2.9l14.19-8.2a2.9,2.9,0,0,1,2.9-.23Z" style="fill: rgb(69, 90, 100); transform-origin: 332.065px 172.908px;" id="el0xd3oljxujoa" class="animable"></path><path d="M342.31,186.94l10.76-6.21c1.08-.63,2-.12,2,1.12v6.08a4.31,4.31,0,0,1-2,3.39l-10.76,6.21c-1.08.63-2,.12-2-1.12v-6.08A4.36,4.36,0,0,1,342.31,186.94Z" style="fill: rgb(224, 224, 224); transform-origin: 347.69px 189.13px;" id="elwzcp7l15ghl" class="animable"></path><path d="M301.76,197.67c-1.52.87-1.35,2.39.37,3.39l4.75,2.74a6.49,6.49,0,0,0,5.88.22c1.53-.87,1.36-2.39-.37-3.39l-4.75-2.75A6.52,6.52,0,0,0,301.76,197.67Z" style="fill: rgb(38, 50, 56); transform-origin: 307.264px 200.845px;" id="elzg2j2wlccn" class="animable"></path><path d="M301.76,196.54c-1.52.87-1.35,2.4.37,3.39l4.75,2.75a6.52,6.52,0,0,0,5.88.21c1.53-.87,1.36-2.39-.37-3.39l-4.75-2.74A6.49,6.49,0,0,0,301.76,196.54Z" style="fill: rgb(69, 90, 100); transform-origin: 307.264px 199.715px;" id="el6w0wdi7jae6" class="animable"></path><path d="M366.32,173.56l-1.41-.36-3.24-1.87a4.94,4.94,0,0,0-4.43-.17h-.06l-.73-.19v1.3h0a1.83,1.83,0,0,0,1.07,1.42l3.58,2.06a5,5,0,0,0,4.44.17,1.32,1.32,0,0,0,.77-1.12v-1.24Z" style="fill: rgb(38, 50, 56); transform-origin: 361.385px 173.538px;" id="eljx5245w5ed" class="animable"></path><path d="M357.24,169.91c-1.15.67-1,1.81.28,2.56l3.58,2.07a4.93,4.93,0,0,0,4.44.17c1.14-.66,1-1.81-.29-2.56l-3.58-2.07A4.94,4.94,0,0,0,357.24,169.91Z" style="fill: rgb(69, 90, 100); transform-origin: 361.387px 172.312px;" id="el63x0ryhw5oi" class="animable"></path><path d="M378.87,162.84a14.47,14.47,0,0,0-12.95,0h-2.75v3.79c0,1.37.9,2.73,2.7,3.77a14.43,14.43,0,0,0,13.05,0c1.8-1,2.7-2.4,2.7-3.77v-3.79Z" style="fill: rgb(38, 50, 56); transform-origin: 372.395px 166.635px;" id="el4pvi0lut31i" class="animable"></path><path d="M365.87,159.08c-3.6,2.08-3.6,5.45,0,7.53a14.43,14.43,0,0,0,13.05,0c3.6-2.08,3.6-5.45,0-7.53A14.43,14.43,0,0,0,365.87,159.08Z" style="fill: rgb(69, 90, 100); transform-origin: 372.395px 162.845px;" id="eluj2rimerwfa" class="animable"></path><path d="M352.15,167.48a4.07,4.07,0,0,0-3.54,0h-.83v1.08a1.29,1.29,0,0,0,.76,1.07,4.09,4.09,0,0,0,3.67,0,1.28,1.28,0,0,0,.76-1.06v-1.09Z" style="fill: rgb(38, 50, 56); transform-origin: 350.375px 168.57px;" id="elp19fgi3my3m" class="animable"></path><path d="M360.31,164.33v-1.09h-.82a4.07,4.07,0,0,0-3.54,0h-.83v1.09a1.27,1.27,0,0,0,.76,1.06,4.09,4.09,0,0,0,3.67,0A1.27,1.27,0,0,0,360.31,164.33Z" style="fill: rgb(38, 50, 56); transform-origin: 357.715px 164.33px;" id="elp8d15bbays" class="animable"></path><path d="M348.54,166.42a1.12,1.12,0,0,0,0,2.12,4.09,4.09,0,0,0,3.67,0,1.12,1.12,0,0,0,0-2.12A4,4,0,0,0,348.54,166.42Z" style="fill: rgb(69, 90, 100); transform-origin: 350.375px 167.475px;" id="elne6bk941md" class="animable"></path><path d="M355.88,162.18a1.12,1.12,0,0,0,0,2.12,4.09,4.09,0,0,0,3.67,0,1.12,1.12,0,0,0,0-2.12A4.09,4.09,0,0,0,355.88,162.18Z" style="fill: rgb(69, 90, 100); transform-origin: 357.715px 163.24px;" id="elih147n2wmgp" class="animable"></path><path d="M384.56,206.47a9,9,0,0,0,1.11-4.09,3.72,3.72,0,0,0-1.13-2.94l3-5.16c1.35,1,2.09,2.85,2.09,5.3a18,18,0,0,1-2.4,8.42Z" style="fill: rgb(38, 50, 56); transform-origin: 387.085px 201.14px;" id="el6rr042dadkh" class="animable"></path><path d="M376.8,216.27a4.47,4.47,0,0,1-1.77-.35l3-5.15a3,3,0,0,0,.94.15,4.36,4.36,0,0,0,2.16-.65,9.15,9.15,0,0,0,3-3l2.64,1.53a18.06,18.06,0,0,1-6.09,6.29A7.87,7.87,0,0,1,376.8,216.27Z" style="fill: rgb(38, 50, 56); transform-origin: 380.9px 211.77px;" id="el2wqdmdyx87x" class="animable"></path><path d="M374.25,215.47c-1.35-1-2.09-2.85-2.09-5.29a18,18,0,0,1,2.41-8.43l2.65,1.53a8.93,8.93,0,0,0-1.12,4.1,3.72,3.72,0,0,0,1.13,2.94Z" style="fill: rgb(38, 50, 56); transform-origin: 374.695px 208.61px;" id="eloc5beb0cp5" class="animable"></path><path d="M384.81,202.62a8.66,8.66,0,0,1-3.92,6.78,2.39,2.39,0,0,1-3.93-2.26,8.73,8.73,0,0,1,3.93-6.79,2.39,2.39,0,0,1,3.92,2.27Z" style="fill: rgb(38, 50, 56); transform-origin: 380.885px 204.879px;" id="elsncgu57do2i" class="animable"></path><path d="M375,201a17.9,17.9,0,0,1,6.09-6.29,8,8,0,0,1,3.87-1.2,4.29,4.29,0,0,1,1.76.35l-3,5.16a2.68,2.68,0,0,0-.93-.16,4.34,4.34,0,0,0-2.16.66,8.79,8.79,0,0,0-3,3Z" style="fill: rgb(38, 50, 56); transform-origin: 380.86px 198.015px;" id="elhd9xltutyyj" class="animable"></path><path d="M372.49,223.82l2.11-1.21c.43-.25.78-.05.78.45v2.43a1.74,1.74,0,0,1-.78,1.36l-2.11,1.21c-.43.25-.78.05-.78-.45v-2.43A1.74,1.74,0,0,1,372.49,223.82Z" style="fill: rgb(38, 50, 56); transform-origin: 373.545px 225.335px;" id="el9c5b58ssji9" class="animable"></path><path d="M387.17,215.35l2.11-1.22a.49.49,0,0,1,.78.46V217a1.72,1.72,0,0,1-.78,1.35l-2.11,1.22a.48.48,0,0,1-.78-.45V216.7A1.72,1.72,0,0,1,387.17,215.35Z" style="fill: rgb(38, 50, 56); transform-origin: 388.224px 216.856px;" id="elpjpzhr2p6ec" class="animable"></path><path d="M372.49,189.94l2.11-1.22a.48.48,0,0,1,.78.45v2.43a1.74,1.74,0,0,1-.78,1.36l-2.11,1.21c-.43.26-.78.05-.78-.45v-2.43A1.72,1.72,0,0,1,372.49,189.94Z" style="fill: rgb(38, 50, 56); transform-origin: 373.548px 191.446px;" id="el4eumktn9due" class="animable"></path><path d="M387.17,181.46l2.11-1.21c.43-.25.78-.05.78.45v2.43a1.74,1.74,0,0,1-.78,1.36l-2.11,1.21c-.43.25-.78.05-.78-.45v-2.43A1.74,1.74,0,0,1,387.17,181.46Z" style="fill: rgb(38, 50, 56); transform-origin: 388.225px 182.975px;" id="elwoi46hlue7" class="animable"></path><path d="M365.06,197.73v32.71a5.19,5.19,0,0,1-2.35,4.07l-39.34,22.71c-1.3.75-2.35.14-2.35-1.35V223.15a5.17,5.17,0,0,1,2.35-4.06l39.34-22.72C364,195.63,365.06,196.23,365.06,197.73Z" style="fill: rgb(240, 240, 240); transform-origin: 343.04px 226.797px;" id="el7mtgnsim14d" class="animable"></path><path d="M325.55,230.44a13.7,13.7,0,0,0,6.2-10.75c0-2.18-.84-3.64-2.18-4.19l-6.2,3.59a5.17,5.17,0,0,0-2.35,4.06v7.62C322.15,231.52,323.76,231.47,325.55,230.44Z" style="fill: #0563BB; transform-origin: 326.385px 223.39px;" id="elqx6c5c2jo3k" class="animable"></path><g id="elw24eao9r41"><path d="M325.55,230.44a13.7,13.7,0,0,0,6.2-10.75c0-2.18-.84-3.64-2.18-4.19l-6.2,3.59a5.17,5.17,0,0,0-2.35,4.06v7.62C322.15,231.52,323.76,231.47,325.55,230.44Z" style="fill: rgb(255, 255, 255); opacity: 0.7; isolation: isolate; transform-origin: 326.385px 223.39px;" class="animable" id="el1loj8zqwus1"></path></g><path d="M358.77,211.32a1,1,0,0,0-1.83.16l-10.23,21.67-9-5.42a1.8,1.8,0,0,0-2.46.6v0L321,252.22v3.65c0,1.49,1.05,2.1,2.35,1.35l39.34-22.71a5.24,5.24,0,0,0,2.35-4.06V220.1Z" style="fill: #0563BB; transform-origin: 343.02px 234.168px;" id="elewk8cl66kdq" class="animable"></path><polyline points="328.36 220.44 324.69 222.56 324.69 226.8" style="fill: none; stroke: rgb(255, 255, 255); stroke-linecap: round; stroke-linejoin: round; transform-origin: 326.525px 223.62px;" id="el8y7v4yki8vc" class="animable"></polyline><polyline points="324.69 247.98 324.69 252.22 328.36 250.1" style="fill: none; stroke: rgb(255, 255, 255); stroke-linecap: round; stroke-linejoin: round; transform-origin: 326.525px 250.1px;" id="elxj7kk2hoaxd" class="animable"></polyline><polyline points="357.72 203.49 361.39 201.37 361.39 205.61" style="fill: none; stroke: rgb(255, 255, 255); stroke-linecap: round; stroke-linejoin: round; transform-origin: 359.555px 203.49px;" id="el54kjdti0k1y" class="animable"></polyline><polyline points="361.39 226.8 361.39 231.03 357.72 233.15" style="fill: none; stroke: rgb(255, 255, 255); stroke-linecap: round; stroke-linejoin: round; transform-origin: 359.555px 229.975px;" id="el7owpk94n0tp" class="animable"></polyline><path d="M385.24,206.88a9,9,0,0,0,1.11-4.1,3.72,3.72,0,0,0-1.13-2.94l3-5.15c1.35,1,2.09,2.85,2.09,5.29a18.13,18.13,0,0,1-2.4,8.43Z" style="fill: rgb(69, 90, 100); transform-origin: 387.765px 201.55px;" id="elgwsermv6yfw" class="animable"></path><path d="M377.48,216.67a4.45,4.45,0,0,1-1.76-.34l3-5.16a2.93,2.93,0,0,0,.93.16,4.28,4.28,0,0,0,2.17-.66,9.15,9.15,0,0,0,3-3l2.65,1.53a17.9,17.9,0,0,1-6.09,6.29A8,8,0,0,1,377.48,216.67Z" style="fill: rgb(69, 90, 100); transform-origin: 381.595px 212.17px;" id="elyat6i70r2vb" class="animable"></path><path d="M374.93,215.88c-1.35-1-2.08-2.86-2.08-5.3a18,18,0,0,1,2.4-8.42l2.65,1.52a8.93,8.93,0,0,0-1.12,4.1,3.72,3.72,0,0,0,1.13,2.94Z" style="fill: rgb(69, 90, 100); transform-origin: 375.38px 209.02px;" id="eldmtgfd5ja0v" class="animable"></path><path d="M385.49,203a8.68,8.68,0,0,1-3.92,6.79,2.39,2.39,0,0,1-3.37-.22,2.36,2.36,0,0,1-.55-2,8,8,0,0,1,1.15-3.86,7.84,7.84,0,0,1,2.77-2.92,2.39,2.39,0,0,1,3.92,2.26Z" style="fill: rgb(69, 90, 100); transform-origin: 381.572px 205.29px;" id="el7t8aesfy8z4" class="animable"></path><path d="M375.71,201.37a17.9,17.9,0,0,1,6.09-6.29,8.05,8.05,0,0,1,3.87-1.19,4.37,4.37,0,0,1,1.75.34l-3,5.16a2.92,2.92,0,0,0-.93-.15,4.36,4.36,0,0,0-2.16.65,9.15,9.15,0,0,0-3,3Z" style="fill: rgb(69, 90, 100); transform-origin: 381.565px 198.39px;" id="el08letx10ev2j" class="animable"></path><path d="M373.18,224.23l2.1-1.22a.48.48,0,0,1,.78.45v2.43a1.74,1.74,0,0,1-.78,1.36l-2.1,1.21a.48.48,0,0,1-.78-.45v-2.43A1.72,1.72,0,0,1,373.18,224.23Z" style="fill: rgb(69, 90, 100); transform-origin: 374.23px 225.735px;" id="el85aoxl2wt99" class="animable"></path><path d="M387.86,215.75l2.1-1.21a.48.48,0,0,1,.78.45v2.43a1.72,1.72,0,0,1-.78,1.35l-2.1,1.22a.49.49,0,0,1-.79-.45v-2.43A1.72,1.72,0,0,1,387.86,215.75Z" style="fill: rgb(69, 90, 100); transform-origin: 388.906px 217.263px;" id="el7ciag5euket" class="animable"></path><path d="M373.18,190.34l2.1-1.21a.48.48,0,0,1,.78.45V192a1.72,1.72,0,0,1-.78,1.35l-2.1,1.22a.48.48,0,0,1-.78-.45V191.7A1.74,1.74,0,0,1,373.18,190.34Z" style="fill: rgb(69, 90, 100); transform-origin: 374.23px 191.85px;" id="elwnunr6n2cl9" class="animable"></path><path d="M387.86,181.87l2.1-1.22c.43-.25.78-.05.78.45v2.43a1.74,1.74,0,0,1-.78,1.36l-2.1,1.21c-.44.25-.79.05-.79-.45v-2.43A1.71,1.71,0,0,1,387.86,181.87Z" style="fill: rgb(69, 90, 100); transform-origin: 388.905px 183.375px;" id="elzs4ibdbsrz8" class="animable"></path></g><g id="freepik--Character--inject-8" class="animable" style="transform-origin: 389.713px 312.517px;"><path d="M373,255.31h3a5.49,5.49,0,0,1,5.51,5.49V261l-.65,20.14Z" style="fill: rgb(242, 143, 143); transform-origin: 377.255px 268.225px;" id="elynqrfqjngur" class="animable"></path><path d="M349.16,264.5h0a9.25,9.25,0,0,0,9.25-9.25h0V227.71h0a9.25,9.25,0,0,0-9.25,9.25h0Z" style="fill: rgb(38, 50, 56); transform-origin: 353.785px 246.105px;" id="eltyitohlhuk" class="animable"></path><g id="elh53xpta3f8"><rect x="361.86" y="368.91" width="8.61" height="5.92" style="fill: rgb(255, 168, 167); transform-origin: 366.165px 371.87px; transform: rotate(-72.06deg);" class="animable" id="el9tua5v436n5"></rect></g><path d="M368.82,373.32a3.22,3.22,0,0,0,.49,1.91,24.85,24.85,0,0,0,3.15,4.14c1.69,1.81,4.21,3.95,6,5.53,1,.88,1,2.2-.39,2.67a10.84,10.84,0,0,1-7.92-1.11c-1.79-1-4.35-5.42-5.85-6.09-1.71-.78-2.68-1.17-3.26-2a2.78,2.78,0,0,1-.35-3.45c.81-1.5,2-3.83,2.53-3.57l-.16.48c.4,1.23,3.75,2.66,5.47,2.32Z" style="fill: rgb(55, 71, 79); transform-origin: 369.707px 379.604px;" id="elod6l7d7qlri" class="animable"></path><path d="M363.08,371.87c1.33.41,2.1,1.51,3.82,1.16l1.92.29a3.22,3.22,0,0,0,.49,1.91,24.85,24.85,0,0,0,3.15,4.14c.82.88,1.84,1.84,2.88,2.77h0c.83,1.3-1.94,1.68-3.47,1.24a8.42,8.42,0,0,1-4.14-3.18c-1.11-1.46-4.13-4.85-4.58-6A3.13,3.13,0,0,1,363.08,371.87Z" style="fill: rgb(255, 168, 167); transform-origin: 369.19px 377.713px;" id="elwqf0z1igli7" class="animable"></path><path d="M346.05,288.55c0-7.57,1.45-13.14,3.11-24.75.56-3.94,2.09-5.92,4.87-7h0s7.63,3.14,7.63,8.78-6.18,8.54-6.18,8.54l-1.24,9.74-5.13,9.21C346.55,292.26,346,290.87,346.05,288.55Z" style="fill: rgb(255, 168, 167); transform-origin: 353.853px 274.935px;" id="eleo73be0iy4g" class="animable"></path><rect x="356.09" y="380.23" width="5.75" height="8.37" style="fill: rgb(255, 168, 167); transform-origin: 358.965px 384.415px;" id="ellzf1uzldc3" class="animable"></rect><path d="M351.76,294.9c-2.28,9.77-.06,22.93.72,31.15.76,8,1.7,17.34,1.7,17.34s-2.45,8.46-2.33,15C352,365.28,356,382,356,382a5.44,5.44,0,0,0,5.9,0s1-14,2-21.93c1-8.29,1.31-14.34,2.17-19.19,1.07-6,2.49-26.44,2.49-26.44l3.5,20.2a40.7,40.7,0,0,0-4.27,9.72c-1.27,4.91-4,24.41-4,24.41a9.73,9.73,0,0,0,6.22,2.46S382.33,342,384,339c1.8-3.11-.4-35.19-2.12-44.64Z" style="fill: #0563BB; transform-origin: 367.715px 338.615px;" id="elit7ksbj4o3" class="animable"></path><g id="elriu6b1kqasd"><path d="M351.76,294.9c-2.28,9.77-.06,22.93.72,31.15.76,8,1.7,17.34,1.7,17.34s-2.45,8.46-2.33,15C352,365.28,356,382,356,382a5.44,5.44,0,0,0,5.9,0s1-14,2-21.93c1-8.29,1.31-14.34,2.17-19.19,1.07-6,2.49-26.44,2.49-26.44l3.5,20.2a40.7,40.7,0,0,0-4.27,9.72c-1.27,4.91-4,24.41-4,24.41a9.73,9.73,0,0,0,6.22,2.46S382.33,342,384,339c1.8-3.11-.4-35.19-2.12-44.64Z" style="opacity: 0.3; isolation: isolate; transform-origin: 367.715px 338.615px;" class="animable" id="elb6ot813rx85"></path></g><path d="M362.29,255.45s-7.29.91-8.26,1.34c7.63,5.37,1.45,17.32,1.45,17.32l3.7,10.16c-3.11,3.38-5.73,5.41-7.41,10.6,2.13,2.47,15.53,8.84,30.07-.52A111.76,111.76,0,0,0,380,283c2.09-10,2.6-14.41,2-16.76-1.71-6.61-5.62-10.83-10.11-11.08Z" style="fill: #0563BB; transform-origin: 367.002px 277.224px;" id="elinxkhbz8uqh" class="animable"></path><g id="elu38adhgr9h8"><path d="M362.29,255.45s-7.29.91-8.26,1.34c7.63,5.37,1.45,17.32,1.45,17.32l3.7,10.16c-3.11,3.38-5.73,5.41-7.41,10.6,2.13,2.47,15.53,8.84,30.07-.52A111.76,111.76,0,0,0,380,283c2.09-10,2.6-14.41,2-16.76-1.71-6.61-5.62-10.83-10.11-11.08Z" style="fill: rgb(255, 255, 255); opacity: 0.5; isolation: isolate; transform-origin: 367.002px 277.224px;" class="animable" id="elb36ljuevea"></path></g><path d="M361.84,385.76v-.82a15.91,15.91,0,0,0,4.11,7.2c1.82,1.65,4.29,3.56,4.92,5.41S368,400.22,365.6,400a9.46,9.46,0,0,1-5.9-3.09c-1.49-1.71-1.47-2.88-2.16-3.82s-2.3-2-2.68-3.08a6.94,6.94,0,0,1,.33-3c.27-1,.56-2.14.9-2v.63a4.56,4.56,0,0,0,2.88,1C359.81,386.57,361.85,386.4,361.84,385.76Z" style="fill: rgb(55, 71, 79); transform-origin: 362.881px 392.487px;" id="elqfevaguti6" class="animable"></path><path d="M356.09,385.57c.42.46,1.57.09,2.88.14.84,0,2,.33,2-.31l.82-.46a16,16,0,0,0,4.11,7.2c.44.39.91.8,1.38,1.23,1,1.07.69,2-1.57,2.2s-4.26-1.17-6-3.28A37.19,37.19,0,0,1,356.09,385.57Z" style="fill: rgb(255, 168, 167); transform-origin: 361.956px 390.265px;" id="elhbkt49az69" class="animable"></path><path d="M365.23,225h5.36a11.13,11.13,0,0,1,11.13,11.13h0v1.33a13.11,13.11,0,0,1-13.1,13.1h-1.36a13.17,13.17,0,0,1-13.17-13.17h0V236.1A11.13,11.13,0,0,1,365.23,225Z" style="fill: rgb(38, 50, 56); transform-origin: 367.905px 237.78px;" id="el7e66gm588jh" class="animable"></path><path d="M377.18,230.56c1.46.86,3.27,4.53,3.09,12.22-.15,6.52-2.27,8.13-3.33,8.59s-3.1.18-5.09-.15v3.92s2.75,3.19,2.57,5-4,2.22-6.54.47a20.84,20.84,0,0,1-4.74-5.17v-9s-1.17,1.14-3.15-.59c-1.64-1.44-2.19-3.85-.92-5.15a2.86,2.86,0,0,1,4,.14,3,3,0,0,1,.51.76,15.67,15.67,0,0,0,7.39-2.2A11.86,11.86,0,0,0,377.18,230.56Z" style="fill: rgb(255, 168, 167); transform-origin: 369.326px 246.145px;" id="el82looa9q9ht" class="animable"></path><path d="M373,241.14a.83.83,0,0,1-.77.89h0a.85.85,0,1,1,.78-.92Z" style="fill: rgb(38, 50, 56); transform-origin: 372.162px 241.183px;" id="ely0smij6xqhk" class="animable"></path><path d="M373.21,246.67l1.9.6a1,1,0,0,1-1.23.69h0a1,1,0,0,1-.68-1.24Z" style="fill: rgb(242, 143, 143); transform-origin: 374.135px 247.333px;" id="eln8kj4h358oa" class="animable"></path><path d="M379.71,238.62l-1.66-1.15a1,1,0,0,1,1.38-.28A1.06,1.06,0,0,1,379.71,238.62Z" style="fill: rgb(38, 50, 56); transform-origin: 378.962px 237.823px;" id="eluv4j9yj6a2" class="animable"></path><path d="M379.33,240.55a.82.82,0,1,1-.86-.81A.84.84,0,0,1,379.33,240.55Z" style="fill: rgb(38, 50, 56); transform-origin: 378.51px 240.559px;" id="el2amlnyf7x46" class="animable"></path><polygon points="375.46 240.08 375.59 245.01 378.19 244.21 375.46 240.08" style="fill: rgb(242, 143, 143); transform-origin: 376.825px 242.545px;" id="elofg773kt18" class="animable"></polygon><path d="M371.85,251.22c-2.1-.27-6.41-1.51-7.09-3.22a4.41,4.41,0,0,0,1.52,2.18c1.29,1.1,5.57,2.35,5.57,2.35Z" style="fill: rgb(242, 143, 143); transform-origin: 368.305px 250.265px;" id="eljor6n9u42jh" class="animable"></path><polygon points="357 278.26 362.74 286.04 359.18 284.27 357 278.26" style="fill: #0563BB; transform-origin: 359.87px 282.15px;" id="ely4bofwapo7" class="animable"></polygon><path d="M368.55,314.39l1-5.5a55.44,55.44,0,0,0,8.54-3.17s-3.82,3.39-6.7,4.34l-1.42,6.3.71,10.1Z" style="fill: #0563BB; transform-origin: 373.32px 316.09px;" id="el6mg1emr26xb" class="animable"></path><g id="elkh5akgg8n7m"><path d="M368.55,314.39l1-5.5a55.44,55.44,0,0,0,8.54-3.17s-3.82,3.39-6.7,4.34l-1.42,6.3.71,10.1Z" style="opacity: 0.4; isolation: isolate; transform-origin: 373.32px 316.09px;" class="animable" id="el7kqnb9v2yqa"></path></g><path d="M354.24,283.85s21.24-3.08,22.59-3.57,3.57-2.87,5.65-3.06c3-.26,4.31-1,4.88-.68s.24,2.06-2.48,3.2a1.22,1.22,0,0,0,.28,2.41,2.66,2.66,0,0,0,1-.2l1.06-.49,1.58-.74a4.67,4.67,0,0,1,0,3,6.47,6.47,0,0,1-3.84,3.5c-1.8.53-7.17-1.18-8.69-.81s-3,.94-9.3,2.5c-5.51,1.37-12.27,3.72-17.89,4.12Z" style="fill: rgb(255, 168, 167); transform-origin: 369.064px 284.746px;" id="eltphz042d7d" class="animable"></path><path d="M433,247.44l-7.42,4.29a.85.85,0,0,0-.38.65V270c0,.24.17.34.38.22l7.42-4.29a.85.85,0,0,0,.38-.65V247.66C433.36,247.42,433.19,247.32,433,247.44Z" style="fill: #0563BB; transform-origin: 429.29px 258.83px;" id="elmd31l6fkag" class="animable"></path><path d="M425.56,251.73l7.42-4.29a.23.23,0,0,1,.37.15A.87.87,0,0,0,433,247l-.31-.18a.85.85,0,0,0-.76,0l-7.42,4.29a.73.73,0,0,0-.27.28l1.07.62A.75.75,0,0,1,425.56,251.73Z" style="fill: #0563BB; transform-origin: 428.795px 249.37px;" id="el84val51pcax" class="animable"></path><g id="ell728ml93wh"><path d="M425.56,251.73l7.42-4.29a.23.23,0,0,1,.37.15A.87.87,0,0,0,433,247l-.31-.18a.85.85,0,0,0-.76,0l-7.42,4.29a.73.73,0,0,0-.27.28l1.07.62A.75.75,0,0,1,425.56,251.73Z" style="fill: rgb(255, 255, 255); opacity: 0.5; isolation: isolate; transform-origin: 428.795px 249.37px;" class="animable" id="el5etffyh6j5"></path></g><path d="M424.11,269.37a.82.82,0,0,0,.38.66l.31.18a.83.83,0,0,0,.69,0c-.18.07-.31,0-.31-.25V252.38a.7.7,0,0,1,.11-.37l-1.07-.62a.76.76,0,0,0-.11.38Z" style="fill: #0563BB; transform-origin: 424.8px 260.838px;" id="elhh6y2o5ciyo" class="animable"></path><g id="elnz06q9l2jwr"><path d="M424.11,269.37a.82.82,0,0,0,.38.66l.31.18a.83.83,0,0,0,.69,0c-.18.07-.31,0-.31-.25V252.38a.7.7,0,0,1,.11-.37l-1.07-.62a.76.76,0,0,0-.11.38Z" style="opacity: 0.2; isolation: isolate; transform-origin: 424.8px 260.838px;" class="animable" id="elg72zdtwq46t"></path></g><path d="M426.84,252.09a1.43,1.43,0,0,0-.62,1.12v1.34c0,.42.28.6.62.4a1.43,1.43,0,0,0,.62-1.12v-1.34C427.46,252.07,427.18,251.89,426.84,252.09Z" style="fill: #0563BB; transform-origin: 426.84px 253.52px;" id="elxnt06bnghqk" class="animable"></path><g id="elonnjox9m4g"><path d="M426.84,252.09a1.43,1.43,0,0,0-.62,1.12v1.34c0,.42.28.6.62.4a1.43,1.43,0,0,0,.62-1.12v-1.34C427.46,252.07,427.18,251.89,426.84,252.09Z" style="opacity: 0.2; isolation: isolate; transform-origin: 426.84px 253.52px;" class="animable" id="elut0qzxx0fqo"></path></g><path d="M426.84,252.59a.57.57,0,0,0-.27.46c0,.17.12.24.27.16a.57.57,0,0,0,.27-.46C427.11,252.58,427,252.51,426.84,252.59Z" style="fill: #0563BB; transform-origin: 426.84px 252.9px;" id="elllylqkhlobf" class="animable"></path><g id="el99qsc3r6rvq"><path d="M426.84,252.59a.57.57,0,0,0-.27.46c0,.17.12.24.27.16a.57.57,0,0,0,.27-.46C427.11,252.58,427,252.51,426.84,252.59Z" style="opacity: 0.5; isolation: isolate; transform-origin: 426.84px 252.9px;" class="animable" id="elcek1qd7ls3s"></path></g><path d="M426.84,253.64a.57.57,0,0,0-.27.46c0,.17.12.24.27.16a.59.59,0,0,0,.27-.47C427.11,253.63,427,253.56,426.84,253.64Z" style="fill: #0563BB; transform-origin: 426.84px 253.95px;" id="elj04nvwe7fd" class="animable"></path><g id="eldli6nj3q7th"><path d="M426.84,253.64a.57.57,0,0,0-.27.46c0,.17.12.24.27.16a.59.59,0,0,0,.27-.47C427.11,253.63,427,253.56,426.84,253.64Z" style="opacity: 0.5; isolation: isolate; transform-origin: 426.84px 253.95px;" class="animable" id="elt4amkyswpv"></path></g><path d="M384.88,279.74l38.66-18,.85,2.41-38.66,18C383.55,283.1,382.84,280.7,384.88,279.74Z" style="fill: rgb(69, 90, 100); transform-origin: 404.03px 272.054px;" id="elqzes09lknq" class="animable"></path><path d="M425.14,260.36l.57.34a1.93,1.93,0,0,0,1.72,0l2.34-1.35c.48-.28.87-.12.87.35a1.79,1.79,0,0,1-.87,1.35l-2.33,1.34a1.89,1.89,0,0,1-1.73,0l-.57-.34a1.84,1.84,0,0,1-.86-1.36C424.28,260.23,424.67,260.08,425.14,260.36Z" style="fill: rgb(69, 90, 100); transform-origin: 427.46px 260.906px;" id="els0e0t6l6w7j" class="animable"></path><path d="M425.14,263.58l.57.33a1.87,1.87,0,0,0,1.72,0l2.34-1.35c.48-.27.87-.12.87.35a1.77,1.77,0,0,1-.87,1.35l-2.33,1.35a2,2,0,0,1-1.73,0l-.57-.33a1.84,1.84,0,0,1-.86-1.36C424.28,263.45,424.67,263.3,425.14,263.58Z" style="fill: rgb(69, 90, 100); transform-origin: 427.46px 264.117px;" id="el565uzouuhx3" class="animable"></path><path d="M423.4,260.44v3.61l2,1.14V260.5l-1-.6a.63.63,0,0,0-1,.54Z" style="fill: rgb(69, 90, 100); transform-origin: 424.4px 262.485px;" id="elvypgtloewv" class="animable"></path></g><defs>     <filter id="active" height="200%">         <feMorphology in="SourceAlpha" result="DILATED" operator="dilate" radius="2"></feMorphology>                <feFlood flood-color="#32DFEC" flood-opacity="1" result="PINK"></feFlood>        <feComposite in="PINK" in2="DILATED" operator="in" result="OUTLINE"></feComposite>        <feMerge>            <feMergeNode in="OUTLINE"></feMergeNode>            <feMergeNode in="SourceGraphic"></feMergeNode>        </feMerge>    </filter>    <filter id="hover" height="200%">        <feMorphology in="SourceAlpha" result="DILATED" operator="dilate" radius="2"></feMorphology>                <feFlood flood-color="#ff0000" flood-opacity="0.5" result="PINK"></feFlood>        <feComposite in="PINK" in2="DILATED" operator="in" result="OUTLINE"></feComposite>        <feMerge>            <feMergeNode in="OUTLINE"></feMergeNode>            <feMergeNode in="SourceGraphic"></feMergeNode>        </feMerge>            <feColorMatrix type="matrix" values="0   0   0   0   0                0   1   0   0   0                0   0   0   0   0                0   0   0   1   0 "></feColorMatrix>    </filter></defs></svg>